<?xml version="1.0" encoding="UTF-8"?>
<svg width="582px" height="618px" viewBox="0 0 582 618" version="1.1" xmlns="http://www.w3.org/2000/svg" xmlns:xlink="http://www.w3.org/1999/xlink">
    <!-- Generator: Sketch 60.1 (88133) - https://sketch.com -->
    <title>Gift_Flat_Icon_Vector</title>
    <desc>Created with Sketch.</desc>
    <g id="Page-1" stroke="none" stroke-width="1" fill="none" fill-rule="evenodd">
        <g id="Gift_Flat_Icon_Vector" fill-rule="nonzero">
            <path d="M536.8,617.9 L45.2,617.9 C36.3,617.9 29.1,610.7 29.1,601.8 L29.1,226.9 C29.1,218 36.3,210.8 45.2,210.8 L536.8,210.8 C545.7,210.8 552.9,218 552.9,226.9 L552.9,601.8 C552.9,610.7 545.7,617.9 536.8,617.9 Z" id="Path" fill="#E8815D"></path>
            <path d="M565.1,268 L16.9,268 C8,268 0.8,260.8 0.8,251.9 L0.8,125 C0.8,116.1 8,108.9 16.9,108.9 L565.1,108.9 C574,108.9 581.2,116.1 581.2,125 L581.2,251.9 C581.2,260.8 574,268 565.1,268 Z" id="Path" fill="#F69B76"></path>
            <path d="M306.7,120.5 L286.7,120.5 C270.2,120.5 256.7,107.1 256.7,90.5 L256.7,84.3 C256.7,67.8 270.1,54.3 286.7,54.3 L306.7,54.3 C323.2,54.3 336.7,67.7 336.7,84.3 L336.7,90.5 C336.7,107.1 323.3,120.5 306.7,120.5 Z" id="Path" fill="#D83945"></path>
            <rect id="Rectangle" fill="#D83945" x="220.7" y="268" width="140.3" height="349.9"></rect>
            <rect id="Rectangle" fill="#EA3D53" x="208.2" y="108.9" width="165.3" height="159.1"></rect>
            <path d="M278.5,68.5 L189.2,10.8 C145.1,-17.7 86.9,14 86.9,66.5 L86.9,66.5 C86.9,89.9 105.9,108.9 129.3,108.9 L269,108.9 C278.7,108.9 286.6,101 286.6,91.3 L286.6,83.2 C286.5,77.3 283.5,71.7 278.5,68.5 Z M227.3,89.5 L150,89.5 C140.6,89.5 133,81.9 133,72.5 L133,72.5 C133,41.7 167.1,23.2 192.9,39.9 L234.8,67 C239.4,69.9 241.6,75.6 239.8,81.1 C238.1,86.3 232.8,89.5 227.3,89.5 Z" id="Shape" fill="#D83945"></path>
            <path d="M304,83.3 L304,91.4 C304,101.1 311.9,109 321.6,109 L461.3,109 C484.7,109 503.7,90 503.7,66.6 L503.7,66.6 C503.7,14.1 445.5,-17.6 401.4,10.9 L312,68.5 C307,71.7 304,77.3 304,83.3 Z M350.7,81.1 C349,75.6 351.2,69.9 355.7,67 L397.6,39.9 C423.4,23.2 457.5,41.8 457.5,72.5 L457.5,72.5 C457.5,81.9 449.9,89.5 440.5,89.5 L363.2,89.5 C357.7,89.5 352.3,86.3 350.7,81.1 Z" id="Shape" fill="#D83945"></path>
        </g>
    </g>
</svg>